<svg width="412" height="59" viewBox="0 0 412 59" fill="none" xmlns="http://www.w3.org/2000/svg">
<path d="M66.208 48.48C63.904 48.48 61.856 48.16 60.064 47.52C58.272 46.88 56.56 45.824 54.928 44.352C54.576 44.096 54.304 43.792 54.112 43.44C53.952 43.056 53.872 42.672 53.872 42.288C53.872 41.68 54.096 41.136 54.544 40.656C54.992 40.176 55.552 39.936 56.224 39.936C56.736 39.936 57.216 40.112 57.664 40.464C58.88 41.584 60.144 42.432 61.456 43.008C62.8 43.584 64.368 43.872 66.16 43.872C67.44 43.872 68.608 43.664 69.664 43.248C70.752 42.832 71.616 42.272 72.256 41.568C72.896 40.864 73.216 40.048 73.216 39.12C73.216 37.968 72.88 37.024 72.208 36.288C71.568 35.52 70.624 34.896 69.376 34.416C68.16 33.904 66.688 33.472 64.96 33.12C63.36 32.832 61.92 32.432 60.64 31.92C59.392 31.408 58.32 30.768 57.424 30C56.528 29.2 55.84 28.256 55.36 27.168C54.88 26.08 54.64 24.816 54.64 23.376C54.64 21.424 55.152 19.744 56.176 18.336C57.2 16.928 58.592 15.84 60.352 15.072C62.112 14.304 64.096 13.92 66.304 13.92C68.32 13.92 70.208 14.24 71.968 14.88C73.728 15.488 75.152 16.32 76.24 17.376C77.008 18.048 77.392 18.768 77.392 19.536C77.392 20.112 77.152 20.656 76.672 21.168C76.224 21.648 75.696 21.888 75.088 21.888C74.64 21.888 74.256 21.76 73.936 21.504C73.424 20.96 72.736 20.48 71.872 20.064C71.008 19.616 70.08 19.248 69.088 18.96C68.128 18.672 67.2 18.528 66.304 18.528C64.864 18.528 63.632 18.736 62.608 19.152C61.584 19.536 60.8 20.08 60.256 20.784C59.712 21.456 59.44 22.256 59.44 23.184C59.44 24.272 59.744 25.168 60.352 25.872C60.992 26.576 61.872 27.152 62.992 27.6C64.112 28.016 65.392 28.4 66.832 28.752C68.592 29.136 70.16 29.568 71.536 30.048C72.944 30.528 74.128 31.152 75.088 31.92C76.048 32.656 76.784 33.584 77.296 34.704C77.808 35.824 78.064 37.216 78.064 38.88C78.064 40.8 77.52 42.48 76.432 43.92C75.344 45.36 73.904 46.48 72.112 47.28C70.352 48.08 68.384 48.48 66.208 48.48ZM88.6221 45.552C88.6221 46.256 88.3821 46.848 87.9021 47.328C87.4541 47.776 86.8941 48 86.2221 48C85.5501 48 84.9741 47.776 84.4941 47.328C84.0461 46.848 83.8221 46.256 83.8221 45.552V14.928C83.8221 14.224 84.0621 13.648 84.5421 13.2C85.0221 12.72 85.5981 12.48 86.2701 12.48C86.9741 12.48 87.5341 12.72 87.9501 13.2C88.3981 13.648 88.6221 14.224 88.6221 14.928V45.552ZM100.278 45.552C100.278 46.256 100.054 46.848 99.6063 47.328C99.1583 47.776 98.5823 48 97.8783 48C97.2063 48 96.6303 47.776 96.1503 47.328C95.7023 46.848 95.4783 46.256 95.4783 45.552V25.008C95.4783 24.304 95.7023 23.728 96.1503 23.28C96.6303 22.8 97.2063 22.56 97.8783 22.56C98.5823 22.56 99.1583 22.8 99.6063 23.28C100.054 23.728 100.278 24.304 100.278 25.008V45.552ZM97.8303 19.392C96.9023 19.392 96.2303 19.232 95.8143 18.912C95.3983 18.56 95.1903 17.984 95.1903 17.184V16.416C95.1903 15.616 95.4143 15.056 95.8623 14.736C96.3103 14.416 96.9823 14.256 97.8783 14.256C98.8383 14.256 99.5263 14.432 99.9423 14.784C100.358 15.104 100.566 15.648 100.566 16.416V17.184C100.566 18.016 100.342 18.592 99.8943 18.912C99.4783 19.232 98.7903 19.392 97.8303 19.392ZM117.919 22.176C119.647 22.176 121.183 22.368 122.527 22.752C123.871 23.104 124.911 23.616 125.647 24.288C126.415 24.928 126.799 25.68 126.799 26.544C126.799 27.088 126.639 27.6 126.319 28.08C125.999 28.528 125.519 28.752 124.879 28.752C124.431 28.752 124.047 28.672 123.727 28.512C123.439 28.352 123.167 28.16 122.911 27.936C122.655 27.712 122.335 27.488 121.951 27.264C121.599 27.072 121.071 26.912 120.367 26.784C119.695 26.656 119.087 26.592 118.543 26.592C116.847 26.592 115.375 26.976 114.127 27.744C112.911 28.512 111.951 29.552 111.247 30.864C110.575 32.176 110.239 33.664 110.239 35.328C110.239 36.992 110.575 38.48 111.247 39.792C111.951 41.104 112.895 42.144 114.079 42.912C115.295 43.68 116.703 44.064 118.303 44.064C119.263 44.064 120.047 44 120.655 43.872C121.263 43.712 121.791 43.52 122.239 43.296C122.719 43.008 123.119 42.72 123.439 42.432C123.791 42.112 124.271 41.952 124.879 41.952C125.583 41.952 126.111 42.176 126.463 42.624C126.847 43.04 127.039 43.568 127.039 44.208C127.039 44.912 126.607 45.6 125.743 46.272C124.911 46.912 123.791 47.44 122.383 47.856C120.975 48.272 119.423 48.48 117.727 48.48C115.231 48.48 113.055 47.904 111.199 46.752C109.375 45.6 107.951 44.032 106.927 42.048C105.935 40.064 105.439 37.824 105.439 35.328C105.439 32.8 105.967 30.56 107.023 28.608C108.079 26.624 109.551 25.056 111.439 23.904C113.327 22.752 115.487 22.176 117.919 22.176ZM143.386 48.48C140.73 48.48 138.426 47.936 136.474 46.848C134.522 45.728 133.002 44.208 131.914 42.288C130.858 40.336 130.33 38.112 130.33 35.616C130.33 32.8 130.89 30.4 132.01 28.416C133.162 26.4 134.65 24.864 136.474 23.808C138.298 22.72 140.234 22.176 142.282 22.176C143.85 22.176 145.338 22.496 146.746 23.136C148.154 23.744 149.402 24.608 150.49 25.728C151.61 26.816 152.49 28.112 153.13 29.616C153.77 31.088 154.106 32.704 154.138 34.464C154.106 35.104 153.85 35.632 153.37 36.048C152.89 36.464 152.33 36.672 151.69 36.672H133.018L131.866 32.592H149.914L149.002 33.456V32.256C148.938 31.136 148.57 30.16 147.898 29.328C147.226 28.464 146.394 27.808 145.402 27.36C144.41 26.88 143.37 26.64 142.282 26.64C141.322 26.64 140.394 26.8 139.498 27.12C138.634 27.408 137.85 27.888 137.146 28.56C136.474 29.232 135.93 30.128 135.514 31.248C135.13 32.336 134.938 33.696 134.938 35.328C134.938 37.088 135.306 38.624 136.042 39.936C136.778 41.248 137.77 42.272 139.018 43.008C140.266 43.712 141.642 44.064 143.146 44.064C144.33 44.064 145.306 43.952 146.074 43.728C146.842 43.472 147.482 43.168 147.994 42.816C148.506 42.464 148.954 42.128 149.338 41.808C149.818 41.52 150.298 41.376 150.778 41.376C151.354 41.376 151.834 41.584 152.218 42C152.602 42.384 152.794 42.848 152.794 43.392C152.794 44.096 152.442 44.736 151.738 45.312C150.874 46.144 149.674 46.88 148.138 47.52C146.634 48.16 145.05 48.48 143.386 48.48ZM162.587 14.352C162.971 14.352 163.371 14.448 163.787 14.64C164.203 14.832 164.523 15.104 164.747 15.456L176.939 34.032L174.875 33.936L187.307 15.456C187.819 14.72 188.475 14.352 189.275 14.352C189.915 14.352 190.475 14.592 190.955 15.072C191.467 15.52 191.723 16.096 191.723 16.8V45.552C191.723 46.256 191.499 46.848 191.051 47.328C190.603 47.776 190.011 48 189.275 48C188.507 48 187.883 47.776 187.403 47.328C186.955 46.848 186.731 46.256 186.731 45.552V21.216L188.267 21.552L177.707 37.632C177.483 37.92 177.195 38.176 176.843 38.4C176.491 38.592 176.123 38.672 175.739 38.64C175.387 38.672 175.019 38.592 174.635 38.4C174.283 38.176 173.995 37.92 173.771 37.632L163.595 21.792L164.747 19.872V45.552C164.747 46.256 164.523 46.848 164.075 47.328C163.659 47.776 163.099 48 162.395 48C161.723 48 161.163 47.776 160.715 47.328C160.299 46.848 160.091 46.256 160.091 45.552V16.8C160.091 16.128 160.331 15.552 160.811 15.072C161.323 14.592 161.915 14.352 162.587 14.352ZM219.72 22.368C220.424 22.368 221 22.608 221.448 23.088C221.896 23.536 222.12 24.112 222.12 24.816V45.552C222.12 46.256 221.896 46.848 221.448 47.328C221 47.776 220.424 48 219.72 48C219.048 48 218.472 47.776 217.992 47.328C217.544 46.848 217.32 46.256 217.32 45.552V42.096L218.328 42.24C218.328 42.816 218.088 43.456 217.608 44.16C217.16 44.864 216.536 45.552 215.736 46.224C214.936 46.864 213.992 47.408 212.904 47.856C211.816 48.272 210.648 48.48 209.4 48.48C207.192 48.48 205.208 47.92 203.448 46.8C201.688 45.648 200.296 44.08 199.272 42.096C198.248 40.112 197.736 37.856 197.736 35.328C197.736 32.736 198.248 30.464 199.272 28.512C200.296 26.528 201.672 24.976 203.4 23.856C205.16 22.736 207.112 22.176 209.256 22.176C210.632 22.176 211.896 22.4 213.048 22.848C214.232 23.296 215.256 23.872 216.12 24.576C216.984 25.28 217.64 26.032 218.088 26.832C218.568 27.6 218.808 28.336 218.808 29.04L217.32 29.184V24.816C217.32 24.144 217.544 23.568 217.992 23.088C218.472 22.608 219.048 22.368 219.72 22.368ZM209.928 44.064C211.432 44.064 212.76 43.68 213.912 42.912C215.064 42.144 215.96 41.104 216.6 39.792C217.24 38.448 217.56 36.96 217.56 35.328C217.56 33.664 217.24 32.176 216.6 30.864C215.96 29.552 215.064 28.512 213.912 27.744C212.76 26.976 211.432 26.592 209.928 26.592C208.456 26.592 207.144 26.976 205.992 27.744C204.872 28.512 203.976 29.552 203.304 30.864C202.664 32.176 202.344 33.664 202.344 35.328C202.344 36.96 202.664 38.448 203.304 39.792C203.976 41.104 204.872 42.144 205.992 42.912C207.144 43.68 208.456 44.064 209.928 44.064ZM227.356 44.064C227.068 43.616 226.94 43.104 226.972 42.528C227.004 41.92 227.34 41.408 227.98 40.992C228.428 40.704 228.892 40.592 229.372 40.656C229.884 40.688 230.364 40.928 230.812 41.376C231.708 42.368 232.7 43.152 233.788 43.728C234.908 44.304 236.252 44.592 237.82 44.592C238.46 44.56 239.116 44.464 239.788 44.304C240.46 44.112 241.036 43.792 241.516 43.344C241.996 42.864 242.236 42.176 242.236 41.28C242.236 40.48 241.98 39.84 241.468 39.36C240.956 38.88 240.284 38.496 239.452 38.208C238.62 37.888 237.724 37.6 236.764 37.344C235.74 37.056 234.7 36.736 233.644 36.384C232.62 36.032 231.692 35.584 230.86 35.04C230.028 34.464 229.34 33.728 228.796 32.832C228.284 31.936 228.028 30.832 228.028 29.52C228.028 28.016 228.444 26.72 229.276 25.632C230.14 24.544 231.244 23.696 232.588 23.088C233.964 22.48 235.452 22.176 237.052 22.176C237.98 22.176 238.956 22.304 239.98 22.56C241.004 22.784 241.996 23.152 242.956 23.664C243.916 24.176 244.748 24.848 245.452 25.68C245.772 26.096 245.948 26.592 245.98 27.168C246.044 27.744 245.788 28.256 245.212 28.704C244.828 29.024 244.364 29.168 243.82 29.136C243.276 29.104 242.828 28.928 242.476 28.608C241.868 27.84 241.084 27.248 240.124 26.832C239.164 26.384 238.076 26.16 236.86 26.16C236.252 26.16 235.612 26.256 234.94 26.448C234.3 26.608 233.756 26.912 233.308 27.36C232.86 27.808 232.636 28.464 232.636 29.328C232.636 30.128 232.892 30.768 233.404 31.248C233.948 31.728 234.652 32.128 235.516 32.448C236.38 32.768 237.324 33.056 238.348 33.312C239.34 33.568 240.316 33.872 241.276 34.224C242.268 34.576 243.148 35.04 243.916 35.616C244.716 36.16 245.356 36.88 245.836 37.776C246.348 38.64 246.604 39.744 246.604 41.088C246.604 42.656 246.14 44 245.212 45.12C244.316 46.208 243.164 47.04 241.756 47.616C240.38 48.192 238.924 48.48 237.388 48.48C235.564 48.48 233.74 48.16 231.916 47.52C230.124 46.848 228.604 45.696 227.356 44.064ZM251.43 23.04H262.71C263.35 23.04 263.878 23.264 264.294 23.712C264.742 24.128 264.966 24.656 264.966 25.296C264.966 25.904 264.742 26.416 264.294 26.832C263.878 27.248 263.35 27.456 262.71 27.456H251.43C250.79 27.456 250.246 27.248 249.798 26.832C249.382 26.384 249.174 25.856 249.174 25.248C249.174 24.608 249.382 24.08 249.798 23.664C250.246 23.248 250.79 23.04 251.43 23.04ZM256.47 16.8C257.174 16.8 257.75 17.04 258.198 17.52C258.646 17.968 258.87 18.544 258.87 19.248V41.52C258.87 42.096 258.966 42.56 259.158 42.912C259.35 43.264 259.606 43.504 259.926 43.632C260.278 43.76 260.63 43.824 260.982 43.824C261.334 43.824 261.638 43.76 261.894 43.632C262.182 43.504 262.518 43.44 262.902 43.44C263.286 43.44 263.638 43.616 263.958 43.968C264.278 44.32 264.438 44.8 264.438 45.408C264.438 46.176 264.022 46.8 263.19 47.28C262.358 47.76 261.462 48 260.502 48C259.958 48 259.318 47.952 258.582 47.856C257.846 47.76 257.126 47.52 256.422 47.136C255.75 46.752 255.19 46.144 254.742 45.312C254.294 44.448 254.07 43.248 254.07 41.712V19.248C254.07 18.544 254.294 17.968 254.742 17.52C255.222 17.04 255.798 16.8 256.47 16.8ZM281.808 48.48C279.152 48.48 276.848 47.936 274.896 46.848C272.944 45.728 271.424 44.208 270.336 42.288C269.28 40.336 268.752 38.112 268.752 35.616C268.752 32.8 269.312 30.4 270.432 28.416C271.584 26.4 273.072 24.864 274.896 23.808C276.72 22.72 278.656 22.176 280.704 22.176C282.272 22.176 283.76 22.496 285.168 23.136C286.576 23.744 287.824 24.608 288.912 25.728C290.032 26.816 290.912 28.112 291.552 29.616C292.192 31.088 292.528 32.704 292.56 34.464C292.528 35.104 292.272 35.632 291.792 36.048C291.312 36.464 290.752 36.672 290.112 36.672H271.44L270.288 32.592H288.336L287.424 33.456V32.256C287.36 31.136 286.992 30.16 286.32 29.328C285.648 28.464 284.816 27.808 283.824 27.36C282.832 26.88 281.792 26.64 280.704 26.64C279.744 26.64 278.816 26.8 277.92 27.12C277.056 27.408 276.272 27.888 275.568 28.56C274.896 29.232 274.352 30.128 273.936 31.248C273.552 32.336 273.36 33.696 273.36 35.328C273.36 37.088 273.728 38.624 274.464 39.936C275.2 41.248 276.192 42.272 277.44 43.008C278.688 43.712 280.064 44.064 281.568 44.064C282.752 44.064 283.728 43.952 284.496 43.728C285.264 43.472 285.904 43.168 286.416 42.816C286.928 42.464 287.376 42.128 287.76 41.808C288.24 41.52 288.72 41.376 289.2 41.376C289.776 41.376 290.256 41.584 290.64 42C291.024 42.384 291.216 42.848 291.216 43.392C291.216 44.096 290.864 44.736 290.16 45.312C289.296 46.144 288.096 46.88 286.56 47.52C285.056 48.16 283.472 48.48 281.808 48.48ZM300.385 48C299.681 48 299.105 47.776 298.657 47.328C298.209 46.848 297.985 46.256 297.985 45.552V25.2C297.985 24.496 298.209 23.92 298.657 23.472C299.105 22.992 299.681 22.752 300.385 22.752C301.057 22.752 301.617 22.992 302.065 23.472C302.545 23.92 302.785 24.496 302.785 25.2V30.576L302.305 28.512C302.561 27.616 302.945 26.784 303.457 26.016C304.001 25.248 304.641 24.576 305.377 24C306.113 23.424 306.929 22.976 307.825 22.656C308.753 22.336 309.713 22.176 310.705 22.176C311.537 22.176 312.257 22.4 312.865 22.848C313.473 23.296 313.777 23.856 313.777 24.528C313.777 25.392 313.553 26.032 313.105 26.448C312.657 26.832 312.161 27.024 311.617 27.024C311.137 27.024 310.673 26.928 310.225 26.736C309.777 26.512 309.249 26.4 308.641 26.4C307.969 26.4 307.281 26.576 306.577 26.928C305.873 27.28 305.233 27.808 304.657 28.512C304.081 29.184 303.617 29.984 303.265 30.912C302.945 31.84 302.785 32.88 302.785 34.032V45.552C302.785 46.256 302.545 46.848 302.065 47.328C301.617 47.776 301.057 48 300.385 48ZM345.471 14.4C347.167 14.4 348.735 14.864 350.175 15.792C351.615 16.688 352.767 17.92 353.631 19.488C354.495 21.056 354.927 22.816 354.927 24.768C354.927 26.72 354.495 28.496 353.631 30.096C352.767 31.664 351.615 32.928 350.175 33.888C348.735 34.816 347.167 35.28 345.471 35.28H336.207L336.591 34.512V45.552C336.591 46.256 336.367 46.848 335.919 47.328C335.503 47.776 334.943 48 334.239 48C333.567 48 333.007 47.776 332.559 47.328C332.143 46.848 331.935 46.256 331.935 45.552V16.848C331.935 16.144 332.175 15.568 332.655 15.12C333.135 14.64 333.711 14.4 334.383 14.4H345.471ZM345.471 30.672C346.303 30.672 347.055 30.4 347.727 29.856C348.431 29.312 348.991 28.592 349.407 27.696C349.855 26.8 350.079 25.824 350.079 24.768C350.079 23.712 349.855 22.752 349.407 21.888C348.991 21.024 348.431 20.336 347.727 19.824C347.055 19.28 346.303 19.008 345.471 19.008H336.111L336.591 18.288V31.296L336.159 30.672H345.471ZM362.635 48C361.931 48 361.355 47.776 360.907 47.328C360.459 46.848 360.235 46.256 360.235 45.552V25.2C360.235 24.496 360.459 23.92 360.907 23.472C361.355 22.992 361.931 22.752 362.635 22.752C363.307 22.752 363.867 22.992 364.315 23.472C364.795 23.92 365.035 24.496 365.035 25.2V30.576L364.555 28.512C364.811 27.616 365.195 26.784 365.707 26.016C366.251 25.248 366.891 24.576 367.627 24C368.363 23.424 369.179 22.976 370.075 22.656C371.003 22.336 371.963 22.176 372.955 22.176C373.787 22.176 374.507 22.4 375.115 22.848C375.723 23.296 376.027 23.856 376.027 24.528C376.027 25.392 375.803 26.032 375.355 26.448C374.907 26.832 374.411 27.024 373.867 27.024C373.387 27.024 372.923 26.928 372.475 26.736C372.027 26.512 371.499 26.4 370.891 26.4C370.219 26.4 369.531 26.576 368.827 26.928C368.123 27.28 367.483 27.808 366.907 28.512C366.331 29.184 365.867 29.984 365.515 30.912C365.195 31.84 365.035 32.88 365.035 34.032V45.552C365.035 46.256 364.795 46.848 364.315 47.328C363.867 47.776 363.307 48 362.635 48ZM403.411 35.376C403.411 37.936 402.851 40.208 401.731 42.192C400.611 44.144 399.091 45.68 397.171 46.8C395.251 47.92 393.091 48.48 390.691 48.48C388.291 48.48 386.131 47.92 384.211 46.8C382.291 45.68 380.755 44.144 379.603 42.192C378.483 40.208 377.923 37.936 377.923 35.376C377.923 32.784 378.483 30.512 379.603 28.56C380.755 26.576 382.291 25.024 384.211 23.904C386.131 22.752 388.291 22.176 390.691 22.176C393.091 22.176 395.251 22.752 397.171 23.904C399.091 25.024 400.611 26.576 401.731 28.56C402.851 30.512 403.411 32.784 403.411 35.376ZM398.611 35.376C398.611 33.616 398.259 32.096 397.555 30.816C396.851 29.504 395.891 28.48 394.675 27.744C393.491 26.976 392.163 26.592 390.691 26.592C389.219 26.592 387.875 26.976 386.659 27.744C385.443 28.48 384.483 29.504 383.779 30.816C383.075 32.096 382.723 33.616 382.723 35.376C382.723 37.072 383.075 38.576 383.779 39.888C384.483 41.2 385.443 42.224 386.659 42.96C387.875 43.696 389.219 44.064 390.691 44.064C392.163 44.064 393.491 43.696 394.675 42.96C395.891 42.224 396.851 41.2 397.555 39.888C398.259 38.576 398.611 37.072 398.611 35.376Z" fill="#FF5B00"/>
<path d="M31.7275 9.01357C33.1794 8.87865 34.5307 9.76097 34.9017 11.1546L36.2324 16.1493C19.3753 16.6367 7.97195 27.7428 7.25857 44.2876L2.1427 42.8869C0.730305 42.4999 -0.147499 41.14 0.0205154 39.7003C1.89651 23.6535 15.3834 10.5377 31.7275 9.01357ZM36.9808 18.9552L45.952 52.6403C46.0172 52.885 46.016 53.1424 45.9484 53.3865C45.8807 53.6306 45.7492 53.8527 45.5669 54.0305C45.3847 54.2083 45.1582 54.3355 44.9103 54.3992C44.6624 54.4629 44.4019 54.4609 44.1551 54.3934L10.1031 45.0643C10.4868 29.5403 21.1615 19.1327 36.9808 18.9587V18.9552ZM34.501 45.9262C35.0697 45.9262 35.6255 45.7596 36.0983 45.4475C36.5711 45.1354 36.9397 44.6918 37.1573 44.1727C37.3749 43.6537 37.4318 43.0826 37.3209 42.5316C37.2099 41.9806 36.9361 41.4745 36.534 41.0772C36.1319 40.68 35.6196 40.4095 35.0619 40.2999C34.5042 40.1903 33.9261 40.2465 33.4008 40.4615C32.8754 40.6765 32.4264 41.0406 32.1105 41.5077C31.7945 41.9748 31.6259 42.524 31.6259 43.0858C31.6259 43.8391 31.9288 44.5616 32.468 45.0943C33.0072 45.6269 33.7385 45.9262 34.501 45.9262ZM30.1884 32.434C30.757 32.434 31.3129 32.2674 31.7857 31.9553C32.2585 31.6432 32.627 31.1996 32.8446 30.6806C33.0622 30.1615 33.1192 29.5904 33.0082 29.0394C32.8973 28.4884 32.6235 27.9823 32.2214 27.5851C31.8193 27.1878 31.307 26.9173 30.7493 26.8077C30.1916 26.6981 29.6135 26.7543 29.0881 26.9693C28.5628 27.1843 28.1137 27.5484 27.7978 28.0155C27.4819 28.4826 27.3133 29.0318 27.3133 29.5936C27.3133 30.3469 27.6162 31.0694 28.1554 31.6021C28.6946 32.1348 29.4259 32.434 30.1884 32.434ZM20.8443 41.6655C21.4129 41.6655 21.9688 41.4989 22.4416 41.1868C22.9144 40.8747 23.2829 40.4311 23.5006 39.9121C23.7182 39.393 23.7751 38.8219 23.6642 38.2709C23.5532 37.7199 23.2794 37.2138 22.8773 36.8166C22.4752 36.4193 21.9629 36.1488 21.4052 36.0392C20.8475 35.9296 20.2694 35.9858 19.7441 36.2008C19.2187 36.4158 18.7697 36.7799 18.4538 37.247C18.1378 37.7141 17.9692 38.2633 17.9692 38.8251C17.9692 39.5784 18.2721 40.3009 18.8113 40.8336C19.3505 41.3663 20.0818 41.6655 20.8443 41.6655Z" fill="#FF5B00"/>
</svg>
